HIERARCHY
ROOT Hips
{
	OFFSET 0.000000 0.000000 0.000000
	CHANNELS 6 Xposition Yposition Zposition Zrotation Yrotation Xrotation 
	JOINT LHipJoint
	{
		OFFSET 0.000000 0.000000 0.000000
		CHANNELS 3 Zrotation Yrotation Xrotation
		JOINT LeftUpLeg
		{
			OFFSET 1.363060 -1.794630 0.839290
			CHANNELS 3 Zrotation Yrotation Xrotation
			JOINT LeftLeg
			{
				OFFSET 2.448110 -6.726130 0.000000
				CHANNELS 3 Zrotation Yrotation Xrotation
				JOINT LeftFoot
				{
					OFFSET 2.562200 -7.039590 0.000000
					CHANNELS 3 Zrotation Yrotation Xrotation
					JOINT LeftToeBase
					{
						OFFSET 0.157640 -0.433110 2.322550
						CHANNELS 3 Zrotation Yrotation Xrotation
						End Site
						{
							OFFSET 0.000000 0.000000 0.000000
						}
					}
				}
			}
		}
	}
	JOINT RHipJoint
	{
		OFFSET 0.000000 0.000000 0.000000
		CHANNELS 3 Zrotation Yrotation Xrotation
		JOINT RightUpLeg
		{
			OFFSET -1.305520 -1.794630 0.839290
			CHANNELS 3 Zrotation Yrotation Xrotation
			JOINT RightLeg
			{
				OFFSET -2.542530 -6.985550 0.000000
				CHANNELS 3 Zrotation Yrotation Xrotation
				JOINT RightFoot
				{
					OFFSET -2.568260 -7.056230 0.000000
					CHANNELS 3 Zrotation Yrotation Xrotation
					JOINT RightToeBase
					{
						OFFSET -0.164730 -0.452590 2.363150
						CHANNELS 3 Zrotation Yrotation Xrotation
						End Site
						{
							OFFSET 0.000000 0.000000 0.000000
						}
					}
				}
			}
		}
	}
	JOINT LowerBack
	{
		OFFSET 0.000000 0.000000 0.000000
		CHANNELS 3 Zrotation Yrotation Xrotation
		JOINT Spine
		{
			OFFSET 0.028270 2.035590 -0.193380
			CHANNELS 3 Zrotation Yrotation Xrotation
			JOINT Spine1
			{
				OFFSET 0.056720 2.048850 -0.042750
				CHANNELS 3 Zrotation Yrotation Xrotation
				JOINT Neck
				{
					OFFSET 0.000000 0.000000 0.000000
					CHANNELS 3 Zrotation Yrotation Xrotation
					JOINT Neck1
					{
						OFFSET -0.054170 1.746240 0.172020
						CHANNELS 3 Zrotation Yrotation Xrotation
						JOINT Head
						{
							OFFSET 0.104070 1.761360 -0.123970
							CHANNELS 3 Zrotation Yrotation Xrotation
							End Site
							{
								OFFSET 0.000000 0.000000 0.000000
							}
						}
					}
				}
				JOINT LeftShoulder
				{
					OFFSET 0.000000 0.000000 0.000000
					CHANNELS 3 Zrotation Yrotation Xrotation
					JOINT LeftArm
					{
						OFFSET 3.362410 1.200890 -0.311210
						CHANNELS 3 Zrotation Yrotation Xrotation
						JOINT LeftForeArm
						{
							OFFSET 4.983000 -0.000000 -0.000000
							CHANNELS 3 Zrotation Yrotation Xrotation
							JOINT LeftHand
							{
								OFFSET 3.483560 -0.000000 -0.000000
								CHANNELS 3 Zrotation Yrotation Xrotation
								JOINT LeftFingerBase
								{
									OFFSET 0.000000 0.000000 0.000000
									CHANNELS 3 Zrotation Yrotation Xrotation
									JOINT LeftHandIndex1
									{
										OFFSET 0.715260 -0.000000 -0.000000
										CHANNELS 3 Zrotation Yrotation Xrotation
										End Site
										{
											OFFSET 0.000000 0.000000 0.000000
										}
									}
								}
								JOINT LThumb
								{
									OFFSET 0.000000 0.000000 0.000000
									CHANNELS 3 Zrotation Yrotation Xrotation
									End Site
									{
										OFFSET 0.000000 0.000000 0.000000
									}
								}
							}
						}
					}
				}
				JOINT RightShoulder
				{
					OFFSET 0.000000 0.000000 0.000000
					CHANNELS 3 Zrotation Yrotation Xrotation
					JOINT RightArm
					{
						OFFSET -3.136600 1.374050 -0.404650
						CHANNELS 3 Zrotation Yrotation Xrotation
						JOINT RightForeArm
						{
							OFFSET -5.241900 -0.000000 -0.000000
							CHANNELS 3 Zrotation Yrotation Xrotation
							JOINT RightHand
							{
								OFFSET -3.444170 -0.000000 -0.000000
								CHANNELS 3 Zrotation Yrotation Xrotation
								JOINT RightFingerBase
								{
									OFFSET 0.000000 0.000000 0.000000
									CHANNELS 3 Zrotation Yrotation Xrotation
									JOINT RightHandIndex1
									{
										OFFSET -0.622530 -0.000000 -0.000000
										CHANNELS 3 Zrotation Yrotation Xrotation
										End Site
										{
											OFFSET 0.000000 0.000000 0.000000
										}
									}
								}
								JOINT RThumb
								{
									OFFSET 0.000000 0.000000 0.000000
									CHANNELS 3 Zrotation Yrotation Xrotation
									End Site
									{
										OFFSET 0.000000 0.000000 0.000000
									}
								}
							}
						}
					}
				}
			}
		}
	}
}
MOTION
Frames: 7
Frame Time: 0.008333
1.336362 17.115488 0.205315 2.133174 9.609936 20.343360 -2.969062 -1.285041 0.460444 -15.117350 1.480179 -2.580371 -0.423985 6.699061 18.593531 2.574393 -15.254642 -5.254508 1.876036 -8.577947 -24.499194 -0.213893 2.385952 -4.484855 16.920019 2.247100 -48.098557 1.078190 -7.285954 16.521160 -0.557564 1.849589 -0.917268 -4.176243 12.305164 -36.943306 -0.429370 -3.093610 -8.946161 1.638303 -4.312060 -9.866985 -0.165470 -2.068176 0.447961 -1.733926 -1.441672 -9.080330 4.222387 -2.118930 13.746532 0.176929 -0.721726 4.874528 12.830150 7.166121 -1.083122 -91.965907 -18.176382 43.099660 32.964573 -49.277633 -14.413911 0.061096 -0.418892 -8.803347 26.386034 -19.298936 -9.097142 -7.125000 0.000000 0.000000 -1.165423 9.146966 0.965465 -13.085931 -6.580854 1.629810 103.154629 -24.623512 -44.441469 -3.118476 11.034934 -0.023138 -1.656903 -0.066156 44.186713 -15.576638 -34.262223 8.024373 7.125000 0.000000 0.000000 21.967468 -62.728253 -9.705465
1.339044 17.112016 0.332099 2.062965 9.600774 20.344662 -2.941090 -1.252117 0.481811 -15.006891 1.383729 -2.161539 -0.424733 6.694824 18.610155 2.519314 -14.828823 -5.093710 2.271611 -9.354346 -26.955116 -0.243453 2.344952 -4.466671 16.952476 2.478591 -48.133241 0.995419 -7.590787 17.346283 -0.477748 1.242327 -0.236488 -4.587146 12.899057 -38.998520 -0.208030 -3.049755 -9.065907 1.655481 -4.295260 -9.866962 -0.229551 -2.061175 0.476219 -1.742137 -1.415984 -9.068070 4.141604 -2.070471 13.655151 0.155325 -0.705959 4.965697 12.835509 7.162289 -1.074938 -91.996006 -17.960687 43.046956 33.286241 -49.492746 -14.626366 0.066579 -0.415283 -8.803862 26.573294 -19.306862 -9.173558 -7.125000 0.000000 0.000000 -1.049395 9.104009 0.870169 -13.089538 -6.584977 1.622219 103.074986 -24.529606 -45.746935 -3.088603 10.863455 -0.010887 -1.650311 -0.016465 45.414269 -15.670343 -34.178297 8.061639 7.125000 0.000000 0.000000 21.807329 -62.690282 -9.610897
1.342076 17.113385 0.459349 1.993417 9.580105 20.348732 -2.913847 -1.220838 0.500294 -14.909082 1.265347 -1.758287 -0.425539 6.700533 18.644987 2.465023 -14.170975 -5.186496 2.857019 -10.382777 -30.299227 -0.278820 2.304012 -4.447739 16.924618 2.748910 -48.198249 0.892633 -7.898699 18.194060 -0.459272 1.104038 0.767904 -4.351177 12.607129 -37.925166 0.020845 -3.000854 -9.189952 1.673080 -4.274847 -9.868843 -0.290320 -2.052108 0.502198 -1.773716 -1.398184 -9.045047 4.079759 -2.032518 13.656786 0.140274 -0.692231 4.957761 12.840249 7.161369 -1.067123 -92.057927 -17.693408 42.989799 33.602737 -49.700810 -14.835476 0.072404 -0.412044 -8.824885 26.773246 -19.328614 -9.261396 -7.125000 0.000000 0.000000 -0.926759 9.044082 0.769515 -13.095840 -6.589946 1.609449 102.976300 -24.400506 -47.116799 -3.064094 10.686618 0.004914 -1.647117 0.032660 46.721421 -15.774076 -34.221166 8.129365 7.125000 0.000000 0.000000 21.753148 -62.766536 -9.624761
1.344788 17.115972 0.586516 1.925399 9.547981 20.355401 -2.887083 -1.192249 0.515878 -14.817342 1.126579 -1.383016 -0.421449 6.720658 18.719234 2.412091 -13.555176 -5.264414 3.417338 -11.329669 -33.414859 -0.314190 2.264242 -4.429280 16.870428 3.042453 -48.263047 0.788996 -8.202810 19.031866 -0.439127 0.933352 1.730428 -3.952207 12.029615 -35.923228 0.243200 -2.949431 -9.313847 1.690658 -4.250517 -9.872308 -0.346472 -2.040699 0.527028 -1.799854 -1.386363 -9.025567 4.009217 -2.000939 13.697531 0.119133 -0.680553 4.919165 12.844278 7.162741 -1.059611 -92.115255 -17.396601 42.930893 33.939428 -49.920479 -15.058575 0.078113 -0.408266 -8.872667 26.954052 -19.359673 -9.346579 -7.125000 0.000000 0.000000 -0.817499 8.976437 0.679986 -13.101039 -6.593611 1.595674 102.874951 -24.273928 -48.456074 -3.042249 10.516029 0.020149 -1.643254 0.080278 48.007104 -15.856369 -34.265563 8.185379 7.125000 0.000000 0.000000 21.722391 -62.838133 -9.647162
1.346304 17.123112 0.713376 1.863100 9.473020 20.371784 -2.862115 -1.173721 0.520624 -14.748294 0.911585 -1.112366 -0.399059 6.794685 18.940853 2.364237 -13.096601 -5.286739 3.883849 -11.971674 -35.676175 -0.349570 2.228849 -4.412595 16.717778 3.422834 -48.327062 0.682175 -8.492708 19.832386 -0.412745 0.641528 2.536403 -2.943751 10.384263 -30.449194 0.441175 -2.888578 -9.437176 1.708162 -4.211541 -9.881691 -0.385360 -2.020533 0.547561 -1.805649 -1.396904 -9.019336 3.906156 -1.993193 13.884513 0.075213 -0.676540 4.765927 12.845647 7.172681 -1.053233 -92.155408 -16.989382 42.865448 34.351625 -50.183541 -15.333983 0.083382 -0.402472 -9.020505 27.063268 -19.425529 -9.421830 -7.125000 0.000000 0.000000 -0.758256 8.879933 0.632053 -13.102108 -6.592398 1.578144 102.763650 -24.156781 -49.680966 -3.030365 10.368800 0.033266 -1.636893 0.122260 49.212509 -15.858491 -34.315676 8.197602 7.125000 0.000000 0.000000 21.779217 -62.892313 -9.701479
1.347796 17.130282 0.840158 1.800731 9.397281 20.388658 -2.837133 -1.155625 0.524983 -14.679532 0.696174 -0.846325 -0.375833 6.870702 19.168465 2.316329 -12.647193 -5.296155 4.343387 -12.603859 -37.903209 -0.384823 2.193597 -4.395842 16.565507 3.803163 -48.390307 0.575481 -8.781902 20.631105 -0.386029 0.346902 3.335274 -1.945203 8.747029 -25.009417 0.639011 -2.827486 -9.559420 1.725744 -4.172256 -9.891338 -0.423765 -2.000121 0.567326 -1.812479 -1.407350 -9.015370 3.803472 -1.985225 14.069897 0.031747 -0.672510 4.616730 12.846984 7.182546 -1.046838 -92.196486 -16.580598 42.799519 34.765209 -50.447256 -15.610381 0.088621 -0.396640 -9.166834 27.171195 -19.490858 -9.496352 -7.125000 0.000000 0.000000 -0.699787 8.784168 0.584751 -13.103175 -6.591103 1.560515 102.652064 -24.038695 -50.903620 -3.018695 10.221880 0.046403 -1.630584 0.164174 50.416202 -15.862122 -34.367480 8.211027 7.125000 0.000000 0.000000 21.836029 -62.948383 -9.756767
1.348041 17.139036 0.962860 1.734690 9.279894 20.431836 -2.811445 -1.160641 0.508620 -14.626104 0.458439 -0.826850 -0.307904 7.053145 19.716703 2.265547 -12.688164 -4.614944 4.429903 -12.710624 -38.296111 -0.413218 2.165930 -4.375444 16.433430 4.180745 -48.412353 0.475531 -9.033466 21.333451 -0.341471 -0.097679 3.754026 -1.476639 7.544152 -21.402429 0.829438 -2.753620 -9.623583 1.747571 -4.116372 -9.915076 -0.436293 -1.966523 0.546013 -1.874661 -1.412753 -9.132542 3.721022 -1.965364 14.169738 0.012501 -0.667584 4.683772 12.846602 7.188350 -1.039574 -92.287103 -16.088078 42.707638 35.252936 -50.745891 -15.939764 0.092229 -0.388734 -9.232465 27.210157 -19.528033 -9.531879 -7.125000 0.000000 0.000000 -0.682730 8.727935 0.571206 -13.104125 -6.585461 1.537562 102.525272 -23.870419 -52.006470 -3.018526 10.091540 0.060644 -1.627116 0.202456 51.528312 -15.946463 -34.509767 8.288786 7.125000 0.000000 0.000000 21.892126 -63.105498 -9.863989
